<svg id="logo" xmlns="http://www.w3.org/2000/svg" width="300" height="300" viewBox="0 0 300 300">
  <rect id="Rectangle_33" data-name="Rectangle 33" width="300" height="300" fill="#0f1922"/>
  <path id="Path_7" data-name="Path 7" d="M253,782.45q27.27-.94,54-.34-.09,35.75-.17,71.49a27.67,27.67,0,0,1-54.81.34c0-26.64-.25-38.84-.34-44.94s-.21-12.28-.34-18.38c-.06-2.88-.07-5.94-.07-5.94v-2.17Z" transform="translate(-186.91 -688.28)" fill="#fff"/>
  <path id="Path_8" data-name="Path 8" d="M415.55,817.68,431.89,801a50.7,50.7,0,0,0-18.55-14c-9.47-4.1-17.78-4.09-24.85-4.08-5.5,0-11.92,0-19.92,2.55-12,3.81-19.41,10.74-24.34,15.32a39,39,0,0,0-11.57,18,53.4,53.4,0,0,0-2.21,11.41c-.56,5.88.05,7.81.06,19.06,0,2.76,0,5-.06,6.47a68.7,68.7,0,0,1-5.11,14.13,63.733,63.733,0,0,1-8.85,13.61c-9.33,10.54-22,14.18-28.26,15.49q29.38.27,59.07.34,26.16.07,52.08,0a42.77,42.77,0,0,0,20.09-6.29,42,42,0,0,0,11.23-10.22l1.53-1.7L417.6,867.72l-3.07-3.06a28.351,28.351,0,0,1-7.15,6.13,30.211,30.211,0,0,1-14.64,4.08c-4.21.23-18.69,1-28.76-9.87-8.25-8.91-8.32-20-8.34-24s-.07-12.55,5.92-20.6c5.45-7.31,12.74-9.85,16.21-11.06a36.539,36.539,0,0,1,24.17-.34,35.46,35.46,0,0,1,13.61,8.68Z" transform="translate(-186.91 -688.28)" fill="#fff"/>
</svg>
